<svg version="1.2" xmlns="http://www.w3.org/2000/svg" xmlns:xlink="http://www.w3.org/1999/xlink" overflow="visible" preserveAspectRatio="none" viewBox="0 0 24 24" width="24" height="24"><g><path xmlns:default="http://www.w3.org/2000/svg" id="sticky-note-o" d="M18.58,16c-0.04,0.16-0.12,0.3-0.23,0.43l-1.93,1.93c-0.13,0.11-0.27,0.19-0.43,0.23V16h2.58H18.58z   M15.66,14.67c-0.55,0-1,0.45-1,1v3H5.34V5.34h13.32v9.33H15.66z M20,5c0-0.55-0.45-1-1-1H5C4.45,4,4,4.45,4,5v14c0,0.55,0.45,1,1,1  h10.66c0.63-0.03,1.24-0.28,1.71-0.71l1.92-1.92c0.43-0.47,0.68-1.08,0.71-1.71V5L20,5z" style="fill: rgb(18, 18, 18);" vector-effect="non-scaling-stroke"/></g></svg>